<svg id="Layer_1" data-name="Layer 1" xmlns="http://www.w3.org/2000/svg" viewBox="0 0 999.56 999.56"><defs><style>.cls-1{fill:#13acc2;}</style></defs><title>linkedin</title><path class="cls-1" d="M195.88,0.25C88.16,0.25,0,88.41,0,196.13V804C0,911.68,88.16,999.81,195.88,999.81H803.72c107.72,0,195.84-88.13,195.84-195.84V196.13C999.56,88.41,911.44.25,803.72,0.25H195.88ZM245.14,165.2c51.65,0,83.46,33.91,84.44,78.48,0,43.58-32.8,78.44-85.44,78.44h-1c-50.66,0-83.41-34.86-83.41-78.44,0-44.57,33.74-78.48,85.38-78.48h0ZM690.22,373.51c99.33,0,173.79,64.92,173.79,204.44V838.39h-151v-243c0-61.06-21.85-102.72-76.48-102.72-41.7,0-66.56,28.08-77.48,55.2-4,9.7-5,23.26-5,36.83V838.39h-151s2-411.61,0-454.23h151v64.32c20.06-31,55.94-75,136.05-75h0ZM168.67,384.19h151V838.4h-151V384.19h0Z" transform="translate(0 -0.25)"/></svg>